<?xml version="1.0" encoding="UTF-8"?>
<svg id="Warstwa_2" data-name="Warstwa 2" xmlns="http://www.w3.org/2000/svg" viewBox="0 0 750.03 901.67">
  <defs>
    <style>
      .cls-1 {
        fill: #004aad;
      }

      .cls-2 {
        fill: #030303;
      }
    </style>
  </defs>
  <path class="cls-1" d="M290.47,278.11c-64.95-80.11-76.05-97.04-83.47-120.33-7.95-24.97-18.36-78.23,17.01-157.78-44.94,29.46-118.88,87.54-169.45,185.21-9.36,18.08-32.83,66.31-45.76,133.18-3.47,17.9-15.85,87.17-3.29,174.8,4.71,32.86,11.3,56.98,22.55,98.11,17.05,62.39,30.12,90.65,35.64,102.06,11.31,23.39,22.76,41.81,31.21,54.4-3.62-8.17-8.34-19.84-12.66-34.22-7.73-25.75-15.01-63.08-9.49-130.35,5.08-61.94,10.86-132.28,50.77-202.35,5.85-10.27,13.01-21.56,20.23-32.39-8.52,1.56-16.74.6-23.49-3.16-1.32.71-3.17,1.77-5.29,3.16-9.3,6.13-21.26,17.45-42.34,76.18-6.5,18.13-9.81,29.47-12.12,38.18-3.03,11.4-5.13,21.26-6.57,28.83-2.23,15.36-3.79,33.28-3.59,53.26.15,15.8,1.37,30.21,3.1,42.99,0,0-31.65-87.04,12.66-204.13,10.81-28.59,23.04-52.6,35.35-72.58-5.19-7.72-.72-24.11,11.06-38.77,11.19-13.91,25.34-21.72,34.14-19.55,18.25-18.49,31.33-26.41,31.79-26.68-7.27,10.76-13.81,20.92-19.59,30.27,9.48-1.04,18.38,1.18,25.06,7.02,4.86,4.25,7.98,9.91,9.42,16.35,9.13-11.69,17.21-21.52,23.67-29.2,0,0,93.89,83.87,132.93,143.47,2.63,4.22,4.22,6.86,4.22,6.86,3.26-3.36,6.69-7.21,10.13-11.57,3.19-4.04,5.95-7.96,8.33-11.64-31.55-44.68-62.48-75.36-82.16-99.63ZM159.18,184.12s-9.23-34.81-24.79-36.13c-13.91-1.18-19.81,1.65-20.91,2.27,1.57-.94,12.58-7.28,23.81-7.28s6.04-7.03,4.95-8.45c2.05,2.5,18.43,23.39,16.94,49.59Z"/>
  <path d="M395.66,400.68l.21.27s1.12-1.85,3.03-4.94l-3.24,4.67Z"/>
  <path class="cls-2" d="M741.24,318.39c-12.93-66.87-36.4-115.1-45.76-133.18C644.91,87.54,570.97,29.46,526.03,0c35.37,79.55,24.96,132.81,17.01,157.78-1.18,3.69-2.44,7.22-4,10.86-20.06,46.91-43.48,67.87-79.47,109.47-39.21,45.31-67.59,87.82-76.94,101.9-5.45,8.22-32.72,49.61-32.57,49.4l-.02.04c-44.91,63.57-90.79,135.21-135.09,215.19-26.34,47.54-49.8,93.82-70.72,138.36l9.5-13.45-9.5,24.53c6.28,25.91,59.29,106.33,60.12,107.59-.24-.7-10.11-29.1,3.12-15.81,12.98,13.03,17.21,15.66,17.46,15.81-.01-.04-.48-1.38-12.65-35.59-12.66-35.6.79-98.11,27.69-178.02,24.93-74.06,110.35-219.06,122.72-239.89,6.39-9.94,17.7-27.06,32.97-47.49,62.76-83.94,137.34-150.04,137.36-150.06,6.46,7.68,14.54,17.51,23.67,29.2,1.44-6.44,4.56-12.1,9.42-16.35,6.68-5.84,15.58-8.06,25.06-7.02-5.78-9.35-12.32-19.51-19.59-30.27.46.27,13.54,8.19,31.79,26.68,8.8-2.17,22.95,5.64,34.14,19.55,11.78,14.66,16.25,31.05,11.06,38.77,12.31,19.98,24.54,43.99,35.35,72.58,44.31,117.09,12.66,204.13,12.66,204.13,1.73-12.78,2.95-27.19,3.1-42.99.2-19.98-1.36-37.9-3.59-53.26-1.44-7.57-3.54-17.43-6.57-28.83-2.31-8.71-5.62-20.05-12.12-38.18-21.08-58.73-33.04-70.05-42.34-76.18-2.12-1.39-3.97-2.45-5.29-3.16-6.75,3.76-14.97,4.72-23.49,3.16,7.22,10.83,14.38,22.12,20.23,32.39,39.91,70.07,45.69,140.41,50.77,202.35,5.52,67.27-1.76,104.6-9.49,130.35-4.32,14.38-9.04,26.05-12.66,34.22,8.45-12.59,19.9-31.01,31.21-54.4,5.52-11.41,18.59-39.67,35.64-102.06,11.25-41.13,17.84-65.25,22.55-98.11,12.56-87.63.18-156.9-3.29-174.8ZM615.65,147.99c-15.56,1.32-24.79,36.13-24.79,36.13-1.49-26.2,14.89-47.09,16.94-49.59-1.09,1.42-5.96,8.45,4.95,8.45s22.24,6.34,23.81,7.28c-1.1-.62-7-3.45-20.91-2.27Z"/>
  <path class="cls-1" d="M383.68,445.64s97.32,162.49,124.22,242.41c26.9,79.91,40.35,142.42,27.69,178.02l-12.66,35.6s4.07-2.37,17.46-15.82c13.4-13.45,3.11,15.82,3.11,15.82,0,0,53.8-81.49,60.13-107.6l-9.49-24.53,9.49,13.45c-20.92-44.54-44.38-90.82-70.71-138.36-45.32-81.8-92.27-154.89-138.16-219.53-.23,2.03-3.69,8.73-6.73,13.95-1.95,3.35-3.72,6.08-4.35,6.59Z"/>
</svg>