<?xml version="1.0" encoding="utf-8"?>
<!DOCTYPE svg PUBLIC "-//W3C//DTD SVG 1.0//EN" "http://www.w3.org/TR/2001/REC-SVG-20010904/DTD/svg10.dtd">
<svg version="1.0" xmlns="http://www.w3.org/2000/svg" width="480px" height="467px" viewBox="0 0 480 467" preserveAspectRatio="xMidYMid meet">
 <g fill="#feffff">
  <path d="M0 233.50 l0 -233.50 240 0 240 0 0 233.50 0 233.50 -240 0 -240 0 0 -233.50z m149.60 216 l-0.20 -3 1.70 0 c0.95 0 1.95 0.25 2.25 0.55 0.40 0.40 0.50 0.05 0.40 -1.35 -0.10 -1.10 -0.50 -6.95 -0.80 -13.05 -0.95 -17.80 -0.15 -28.95 3.40 -44.90 2.20 -10.15 4.10 -16.35 9.45 -31.15 9.25 -25.55 15 -38.95 25 -58.10 9.90 -19.10 16.45 -31.15 22.10 -40.75 4.80 -8.15 20.95 -32 24.75 -36.65 1.30 -1.55 5.60 -7.10 9.55 -12.35 8.75 -11.55 11.85 -15.20 25.70 -30.25 18.45 -19.95 23.25 -25 30.50 -32.10 6.60 -6.50 7.15 -6.90 9 -6.90 1.70 0 2.45 0.45 5.90 3.45 6.10 5.30 12.70 13.40 16.90 20.70 l2.15 3.80 1.60 -3.70 c0.90 -2 2.15 -4.40 2.80 -5.25 1.40 -1.90 1.45 -1.75 -2.85 -10.25 -3 -5.95 -7.80 -13.70 -10.85 -17.45 -1.05 -1.30 -1.55 -2.50 -1.55 -3.60 0 -1.60 0.10 -1.70 1.80 -1.70 1.55 0 2.50 0.60 6.85 4.40 2.75 2.40 8.30 7.65 12.30 11.65 l7.35 7.30 2.80 0.25 c3.25 0.25 8.75 2.75 12.55 5.65 6.15 4.70 12.55 14.65 13.90 21.65 0.75 3.95 0.30 13.05 -0.75 16.15 l-0.85 2.25 1.85 4 c9.60 21 15.05 42.80 16.25 64.75 0.35 5.70 0.45 10.70 0.30 11.15 -0.20 0.50 -0.95 0.80 -2.10 0.80 -1.65 0 -1.75 -0.10 -1.75 -1.75 0 -3.65 -2.10 -16.75 -3.80 -23.65 -3.65 -14.85 -8.55 -27.40 -15.25 -38.85 l-3.60 -6.15 -2.45 1.45 c-3.05 1.80 -7.65 3.40 -11.20 3.85 l-2.65 0.35 1.75 2.75 c2.95 4.65 12.95 23.90 15.90 30.60 6.30 14.20 10.35 29.25 12.90 47.90 1 7.25 0.85 35.20 -0.25 44.75 -1.45 12.95 -4.20 27.90 -6.05 33.30 -0.95 2.70 -1.60 4.95 -1.50 4.95 0.45 0 7.95 -15.95 10.60 -22.50 3.65 -9.10 9.50 -25.40 11.40 -31.85 0.90 -3.10 2.35 -8.95 3.20 -13.05 0.85 -4.05 2 -9.10 2.55 -11.25 2.55 -10.10 4.10 -19.65 4.90 -29.90 0.30 -3.70 0.80 -9.50 1.05 -12.95 3.15 -38.45 1.20 -70.15 -6.30 -100.50 -8.20 -33.30 -23.25 -61.70 -49.20 -93 -5.70 -6.85 -21 -21 -32.50 -30.05 -5.35 -4.25 -11.50 -8.55 -11.50 -8.15 0 0.20 1.15 2.20 2.50 4.45 3.10 5.15 4.60 8.40 7.10 15.75 4.25 12.45 5.70 22.30 5.30 36.30 l-0.25 8.10 -4.20 6 c-2.30 3.30 -5.65 8.15 -7.40 10.70 -7.20 10.40 -24 32.65 -36.95 48.90 -22.65 28.40 -26.80 33.75 -38.50 49.50 -3.15 4.25 -6.45 8.55 -7.35 9.50 -0.90 0.95 -3.40 4.35 -5.55 7.50 -2.10 3.15 -5.35 7.80 -7.10 10.25 -44.90 62.15 -76.90 115.20 -96.80 160.35 -2.80 6.40 -3.25 7.90 -2.30 7.90 0.30 0 0.50 0.60 0.50 1.30 0 1.85 -1.05 5.70 -1.55 5.70 -0.75 0 -0.50 0.95 1.55 6.05 2.70 6.70 4.60 10.45 9.75 19 4.30 7.05 14.55 22.10 16.05 23.40 0 0.05 -0.10 -1.30 -0.20 -2.95z m174.30 -4.15 c9.90 -13.75 16.60 -25.25 20.60 -35.45 1.90 -4.90 2.05 -5.45 1.30 -6.15 -0.45 -0.45 -0.80 -1.30 -0.80 -1.95 0 -0.60 -0.35 -1.55 -0.75 -2.10 -1 -1.30 -1 -4.20 0 -4.20 0.40 0 0.75 -0.25 0.75 -0.55 0 -0.60 -5.55 -12.90 -10.60 -23.45 -15.35 -32.05 -45.30 -81.90 -70.90 -118 -15.05 -21.25 -19.60 -27.50 -19.95 -27.50 -0.20 0 -1.30 1.45 -2.50 3.25 l-2.15 3.30 1.95 2.75 c10.60 15.20 14.80 22.10 25.15 41.20 12.40 22.90 22.45 43.35 27.35 55.75 19.40 48.80 23.55 67.20 22.20 98.50 -0.35 6.90 -0.65 13.50 -0.75 14.70 -0.15 1.60 -0.05 2 0.30 1.40 0.30 -0.55 1.10 -0.85 2.20 -0.85 l1.80 0 -0.20 2.95 c-0.05 1.65 0 2.85 0.20 2.75 0.20 -0.15 2.35 -3 4.80 -6.35z m-236.95 -72.95 c-2.30 -5.85 -4.40 -16.40 -6.55 -32.65 -0.95 -7.40 -1.10 -10.90 -1.10 -26.75 -0.05 -15.20 0.10 -19.20 0.85 -24 3.05 -19.40 7.55 -34.65 14.75 -49.65 3.35 -7.05 10.80 -21 13.70 -25.70 l1.90 -3.15 -1.40 0 c-3.15 -0.05 -8.45 -1.60 -11.70 -3.45 l-3.35 -1.95 -2.70 4.60 c-10.70 17.95 -17.85 40.10 -19.60 60.80 -0.45 5.35 -0.55 5.50 -2.55 5.50 l-1.70 0 0 -6.10 c0 -14.45 3 -32.30 8.10 -48.65 1.95 -6.30 6.50 -18.25 9.05 -23.65 l1.25 -2.65 -0.95 -3.55 c-1.20 -4.60 -1.30 -12.85 -0.15 -16.80 3.60 -12.50 15.60 -24.25 26.10 -25.60 l2.85 -0.35 7.50 -7.40 c4.15 -4.05 9.65 -9.25 12.30 -11.55 4.15 -3.60 5.10 -4.20 6.65 -4.20 1.70 0 1.80 0.10 1.80 1.60 0 1.10 -0.65 2.40 -2.20 4.35 -4.75 6.10 -10.60 16.20 -13.25 22.95 l-1.05 2.65 1.20 1.60 c0.70 0.90 1.95 3.20 2.80 5.10 1.40 3.10 1.65 3.40 2.20 2.55 7.35 -12 12.15 -18 18.75 -23.65 5.15 -4.40 5.95 -4.35 11.35 0.50 5.20 4.65 14.15 14 31.20 32.60 14.85 16.15 19.50 21.50 25.95 29.85 l4.20 5.40 1.80 -1.45 c1 -0.80 2.30 -2 2.95 -2.65 l1.15 -1.25 -7.15 -9.45 c-10.05 -13.25 -23.20 -30.10 -36.10 -46.20 -11.75 -14.65 -31.35 -40.80 -38.50 -51.35 -2.40 -3.55 -5.30 -7.75 -6.45 -9.35 l-2.10 -2.95 0 -12.30 c0.05 -13.50 0.50 -17.15 3.30 -26.65 2.90 -9.75 5.80 -16.35 10.95 -24.65 l1.25 -2 -2.75 2 c-17.10 12.30 -35.15 28.65 -44.25 40 -21 26.20 -32 44.95 -40.95 69.85 -5.10 14.20 -9.40 32.85 -11.75 51.15 -1.90 14.75 -2.65 42.30 -1.55 57 0.25 3.60 0.85 11.45 1.25 17.45 0.90 13.05 1.90 21.10 3.50 28.55 3.40 15.70 6.90 30.55 8.20 35.05 2.10 6.95 10.90 30.80 13.75 37.15 2.95 6.45 7.75 16.05 8.05 16.05 0.15 0 -0.20 -1.20 -0.80 -2.60z"/>
  <path d="M329.65 116.65 c-1.10 -0.40 -0.70 -3.30 0.70 -5.40 2.60 -3.80 9.85 -13 12.60 -15.85 2.45 -2.60 2.90 -2.90 4.75 -2.90 1.15 0 3.95 -0.35 6.30 -0.75 2.35 -0.40 4.85 -0.75 5.65 -0.75 1.20 0 1.35 0.20 1.35 1.75 0 1.60 -0.20 1.80 -3.45 3.45 -7.25 3.60 -13.65 9 -18.95 15.90 l-3.75 4.90 -2.30 -0.05 c-1.25 0 -2.60 -0.15 -2.90 -0.30z"/>
  <path d="M130.05 112.35 c-5 -6.65 -10.65 -11.50 -18.65 -15.85 -3.70 -2 -3.90 -2.20 -3.90 -3.80 0 -1.50 0.15 -1.70 1.40 -1.70 0.75 0 3.25 0.35 5.60 0.75 2.35 0.40 5.25 0.75 6.50 0.75 2.20 0 2.35 0.10 5.35 3.65 2.80 3.25 4.50 5.45 11.15 14.20 3.25 4.30 2.55 6.65 -1.95 6.65 -1.90 0 -2.10 -0.15 -5.50 -4.65z"/>
 </g>
 <g fill="#040404">
  <path d="M148.15 453.65 c-5.35 -6.80 -11.10 -15.20 -15.90 -23.10 -5.25 -8.75 -7.10 -12.40 -9.75 -19.15 -1.15 -2.85 -2.25 -5.65 -2.50 -6.30 -0.75 -1.75 -0.60 -2.60 0.45 -2.60 0.65 0 1.05 -0.55 1.45 -2 0.45 -1.85 0.40 -2 -0.30 -1.40 -0.70 0.60 -0.75 0.35 -0.50 -2.15 0.35 -3.20 3.30 -10.15 11.65 -27.35 20.45 -41.95 48.55 -87.20 88.35 -142.35 1.75 -2.45 5 -7.10 7.10 -10.25 2.15 -3.15 4.65 -6.55 5.55 -7.50 0.90 -0.95 4.20 -5.25 7.35 -9.50 11.70 -15.75 15.85 -21.10 38.50 -49.50 12.95 -16.25 29.75 -38.50 36.95 -48.90 1.75 -2.55 5.10 -7.35 7.35 -10.65 l4.20 -6 0.25 -6.60 c0.35 -8.05 -0.45 -17.20 -2.05 -24 -1.45 -5.95 -4.55 -15.20 -6.65 -19.85 -1.70 -3.75 -8.15 -14.45 -10.20 -16.95 -0.80 -0.95 -1.35 -1.85 -1.25 -1.95 0.70 -0.65 11.80 6.50 19.80 12.85 11.60 9.15 26.80 23.25 32.50 30.05 6.35 7.65 14.75 18.80 19.70 26.15 30.25 45.05 41.65 99.20 35.80 170.35 -0.25 3.45 -0.75 9.25 -1.05 12.95 -0.80 10.25 -2.35 19.80 -4.90 29.90 -0.55 2.15 -1.70 7.20 -2.55 11.25 -2 9.50 -4 16.30 -8.45 28.65 -4.90 13.55 -8 21.10 -12.25 30 -4.40 9.15 -11.75 20.95 -12.55 20.15 -0.10 -0.10 1.40 -4.70 3.30 -10.15 5 -14.05 4.80 -13.40 6.75 -24.75 2.85 -16.90 3.40 -23.55 3.45 -40 0 -14.95 -0.25 -18.05 -2.30 -30 -2.15 -12.50 -6.25 -26.15 -11.25 -37.40 -3.55 -8.15 -13.60 -27.15 -17 -32.20 -1.40 -2.10 -2.45 -4 -2.30 -4.15 0.15 -0.15 1.25 -0.25 2.50 -0.25 4.40 0 12.55 -2.95 15.40 -5.55 0.55 -0.50 1.35 -0.95 1.75 -0.95 0.95 0 7.80 11.90 11.15 19.30 3.35 7.40 6.70 17.40 9 26.80 1.70 6.95 3.80 20.05 3.80 23.75 0 1.30 0.15 1.70 0.55 1.30 0.80 -0.80 -0.30 -17.40 -1.80 -26.05 -2.85 -16.80 -7.20 -31.05 -14.35 -47 l-2.55 -5.70 1.10 -3.15 c1.40 -4 1.85 -9.75 1.10 -13.85 -1.35 -7 -7.75 -16.95 -13.90 -21.65 -3.80 -2.90 -9.30 -5.40 -12.55 -5.65 l-2.80 -0.25 -7.35 -7.30 c-7.65 -7.65 -17.30 -16.35 -17.70 -15.95 -0.15 0.15 0.45 1.10 1.30 2.20 4.50 5.55 12.85 20.25 14.95 26.25 0.60 1.70 0.55 1.90 -1.10 4.30 -0.95 1.40 -2.65 4.60 -3.70 7.10 -1.05 2.50 -2.05 4.55 -2.25 4.55 -0.15 0 -1.30 -1.85 -2.50 -4.10 -2.50 -4.65 -6.35 -10.20 -10.75 -15.50 -2.90 -3.55 -10.90 -10.90 -11.80 -10.90 -0.65 0 -13.40 12.55 -20.85 20.50 -27.55 29.50 -32.85 35.55 -42.85 48.75 -3.95 5.25 -8.25 10.80 -9.55 12.35 -3.80 4.65 -19.95 28.50 -24.75 36.65 -4.60 7.80 -5.15 8.85 -11.30 20.25 -15.45 28.75 -20.80 39.85 -27.25 56.05 -5.25 13.15 -12.25 32.50 -14.55 40.05 -2.20 7.35 -5 20 -6.15 27.90 -1 7.25 -1.15 21.90 -0.30 35 0.45 7.20 0.75 8.80 2.10 12.45 0.85 2.35 1.45 4.30 1.35 4.40 -0.15 0.20 -3.05 -2.75 -6 -6.10 l-1.35 -1.50 0.25 2 c0.60 4.80 0.90 8.25 0.65 8.25 -0.15 0 -1.80 -1.95 -3.70 -4.35z m188.95 -343.05 c5.30 -6.90 11.70 -12.30 19 -15.95 1.90 -0.95 3.40 -1.80 3.30 -1.90 -0.05 -0.10 -2.60 0.25 -5.55 0.75 -2.95 0.55 -5.70 0.85 -6.05 0.70 -0.80 -0.30 -5.05 4.20 -10.35 11.05 -6.10 7.90 -7.05 9.35 -6.30 9.85 1.40 0.90 2.35 0.15 5.95 -4.50z"/>
 </g>
 <g fill="#0049a7">
  <path d="M316.70 454.75 c0.15 -1.90 0.40 -4.40 0.55 -5.50 l0.30 -2 -1.15 1.50 c-1.70 2.20 -6.05 6.80 -6.25 6.60 -0.10 -0.10 0.60 -2.55 1.60 -5.45 1.40 -4.25 1.75 -6.05 1.75 -9.20 0 -2.20 0.25 -7.75 0.50 -12.45 1.15 -18.60 -1.95 -38.55 -9.35 -60.25 -7.95 -23.45 -16.20 -43.45 -25.15 -61.25 -17.30 -34.30 -27.95 -52.85 -40.35 -70.20 -3 -4.20 -3.10 -3.35 1.20 -9.95 1.50 -2.30 2.95 -4.10 3.25 -4 1 0.35 21.40 29.10 33.65 47.40 26.45 39.50 47.40 75.80 62.50 108.15 3.15 6.80 6.20 13.70 6.75 15.35 1.10 3.30 1.30 5.80 0.40 6.10 -1 0.35 0 2.90 1.15 2.90 1.35 0 1.20 0.55 -2.10 8.90 -3.45 8.70 -7.55 16.25 -15.10 27.60 -3.45 5.20 -10.60 14.85 -13.10 17.75 l-1.30 1.50 0.25 -3.50z"/>
  <path d="M90 382.70 c-6.55 -9.95 -11.90 -21.35 -19.05 -40.90 -6.10 -16.55 -7.30 -20.35 -10.75 -35.80 -5.80 -25.85 -6.20 -28.15 -7.45 -46.30 -0.40 -6 -1 -13.85 -1.25 -17.45 -0.75 -9.95 -0.60 -35.65 0.25 -46.50 3.90 -49 17.50 -86.35 44.35 -122.10 10.25 -13.65 15.30 -19.45 24.20 -27.75 10 -9.30 16.80 -15.10 24.95 -21.15 5.95 -4.45 12.25 -8.45 14.20 -9 1.20 -0.35 1.20 -0.35 -0.30 1.55 -2.50 3.15 -8.15 12.65 -10.25 17.10 -2.35 5 -6 15.90 -7.10 21.10 -1.40 6.75 -1.90 13.30 -1.75 21.40 l0.20 7.95 2.10 2.95 c1.15 1.65 4.05 5.80 6.45 9.35 7.15 10.55 26.75 36.70 38.50 51.35 19.85 24.75 44.20 56.45 44.20 57.45 0 0.30 -1.05 1.50 -2.35 2.65 -1.35 1.20 -3.15 2.90 -4.10 3.80 -0.90 0.90 -1.85 1.55 -2.05 1.50 -0.25 -0.10 -2.50 -2.85 -5.05 -6.15 -2.55 -3.30 -6.45 -8.15 -8.65 -10.75 -4.90 -5.75 -29 -32.10 -38.25 -41.75 -6.35 -6.60 -14.45 -14.25 -15.10 -14.25 -0.15 0 -1.95 1.40 -4 3.15 -6.80 5.80 -14.10 15.15 -19.30 24.70 -0.75 1.45 -1.55 2.65 -1.70 2.65 -0.15 0 -1.15 -1.95 -2.15 -4.35 -1 -2.45 -2.65 -5.60 -3.65 -7.05 -1.75 -2.60 -1.80 -2.65 -1.10 -4.75 2 -6.10 9.65 -19.70 14.60 -25.85 1 -1.20 1.70 -2.30 1.60 -2.45 -0.35 -0.35 -9.70 8.05 -17.50 15.70 l-7.50 7.40 -2.85 0.35 c-10.50 1.35 -22.50 13.10 -26.10 25.60 -1.40 4.85 -0.80 13.25 1.30 17.25 0.45 0.95 0.35 1.65 -0.80 4.25 -9.95 22.40 -14.85 39.85 -17.05 60.65 -0.80 7.65 -1 16.95 -0.30 15.75 0.25 -0.40 0.60 -2.55 0.75 -4.75 1.40 -16.40 6.90 -36.40 13.90 -50.50 2.85 -5.80 8.95 -16.25 9.45 -16.25 0.20 0 2 1 4.05 2.25 4.20 2.60 7.20 3.65 12.05 4.10 1.85 0.15 3.45 0.45 3.55 0.60 0.10 0.15 -0.95 2.20 -2.40 4.55 -3.40 5.50 -10.60 18.95 -14.40 26.85 -7.20 15 -11.70 30.25 -14.75 49.65 -1.40 8.95 -1.25 36.10 0.25 47.75 1.85 14.15 4.45 28 5.65 30.35 1.10 2.10 6.85 19.40 6.45 19.40 -0.25 0 -2.05 -2.40 -4 -5.30z m47.05 -267.70 c1.05 -0.60 1.40 -0.10 -6.50 -10.30 -6.55 -8.45 -8.65 -10.70 -9.80 -10.45 -0.55 0.15 -3.35 -0.20 -6.25 -0.70 -2.90 -0.55 -5.30 -0.90 -5.40 -0.80 -0.10 0.05 1.60 1.10 3.75 2.25 8.05 4.35 13.70 9.20 18.70 15.85 1.95 2.55 3.75 4.65 4 4.65 0.30 0 0.95 -0.25 1.50 -0.50z"/>
 </g>
</svg>
